<svg width="1392" height="1841" fill="none" xmlns="http://www.w3.org/2000/svg"><path d="M336 385.5c27.338 0 49.5-22.162 49.5-49.5s-22.162-49.5-49.5-49.5-49.5 22.162-49.5 49.5 22.162 49.5 49.5 49.5z" stroke="#8DFD1B"/><path d="M336.5 415.5c44.183 0 80-35.817 80-80s-35.817-80-80-80-80 35.817-80 80 35.817 80 80 80z" stroke="#8DFD1B"/><path d="M335.605 464.71c71.303 0 129.105-57.802 129.105-129.105S406.908 206.5 335.605 206.5 206.5 264.302 206.5 335.605 264.302 464.71 335.605 464.71z" stroke="#8DFD1B" stroke-opacity=".75"/><path d="M335.664 543.828c114.966 0 208.164-93.198 208.164-208.164S450.63 127.5 335.664 127.5 127.5 220.698 127.5 335.664s93.198 208.164 208.164 208.164z" stroke="#8DFD1B" stroke-opacity=".5"/><path d="M335.951 671.402c185.264 0 335.451-150.187 335.451-335.451S521.215.5 335.951.5.5 150.687.5 335.951s150.187 335.451 335.451 335.451z" stroke="#8DFD1B" stroke-opacity=".25"/><path d="M1056 881.5c27.34 0 49.5-22.162 49.5-49.5s-22.16-49.5-49.5-49.5-49.5 22.162-49.5 49.5 22.16 49.5 49.5 49.5z" stroke="#8DFD1B"/><path d="M1056.5 911.5c44.18 0 80-35.817 80-80s-35.82-80-80-80-80 35.817-80 80 35.82 80 80 80z" stroke="#8DFD1B"/><path d="M1055.61 960.71c71.3 0 129.1-57.802 129.1-129.105s-57.8-129.105-129.1-129.105c-71.308 0-129.11 57.802-129.11 129.105s57.802 129.105 129.11 129.105z" stroke="#8DFD1B" stroke-opacity=".75"/><path d="M1055.66 1039.83c114.97 0 208.17-93.2 208.17-208.166S1170.63 623.5 1055.66 623.5c-114.962 0-208.16 93.198-208.16 208.164s93.198 208.166 208.16 208.166z" stroke="#8DFD1B" stroke-opacity=".5"/><path d="M1055.95 1167.4c185.27 0 335.45-150.18 335.45-335.449 0-185.264-150.18-335.451-335.45-335.451-185.263 0-335.45 150.187-335.45 335.451 0 185.269 150.187 335.449 335.45 335.449z" stroke="#8DFD1B" stroke-opacity=".25"/><path d="M336 1554.5c27.338 0 49.5-22.16 49.5-49.5s-22.162-49.5-49.5-49.5-49.5 22.16-49.5 49.5 22.162 49.5 49.5 49.5z" stroke="#8DFD1B"/><path d="M336.5 1584.5c44.183 0 80-35.82 80-80s-35.817-80-80-80-80 35.82-80 80 35.817 80 80 80z" stroke="#8DFD1B"/><path d="M335.605 1633.71c71.303 0 129.105-57.8 129.105-129.1 0-71.31-57.802-129.11-129.105-129.11S206.5 1433.3 206.5 1504.61c0 71.3 57.802 129.1 129.105 129.1z" stroke="#8DFD1B" stroke-opacity=".75"/><path d="M335.664 1712.83c114.966 0 208.164-93.2 208.164-208.17 0-114.96-93.198-208.16-208.164-208.16S127.5 1389.7 127.5 1504.66c0 114.97 93.198 208.17 208.164 208.17z" stroke="#8DFD1B" stroke-opacity=".5"/><path d="M335.951 1840.4c185.264 0 335.451-150.18 335.451-335.45 0-185.26-150.187-335.45-335.451-335.45S.5 1319.69.5 1504.95c0 185.27 150.187 335.45 335.451 335.45z" stroke="#8DFD1B" stroke-opacity=".25"/></svg>