<svg width="322" height="30" fill="none" xmlns="http://www.w3.org/2000/svg"><path d="M26.672 29H3.508a2.62 2.62 0 01-1.016-.195 2.687 2.687 0 01-.82-.528 2.687 2.687 0 01-.527-.82 2.614 2.614 0 01-.196-1.016V.992h5.078v22.93h20.645V29zm32.695-11.328c0 1.706-.293 3.275-.879 4.707-.586 1.432-1.4 2.67-2.441 3.71-1.042 1.043-2.279 1.856-3.711 2.442-1.42.573-2.969.86-4.648.86h-6.876c-1.68 0-3.235-.287-4.667-.86-1.433-.586-2.67-1.4-3.711-2.441-1.042-1.042-1.862-2.279-2.461-3.711-.586-1.432-.88-3.001-.88-4.707V12.32c0-1.692.294-3.255.88-4.687.599-1.446 1.419-2.682 2.46-3.711 1.042-1.042 2.28-1.856 3.712-2.442 1.432-.585 2.988-.878 4.667-.878h6.876c1.68 0 3.229.293 4.648.878 1.432.586 2.67 1.4 3.71 2.442 1.043 1.029 1.856 2.265 2.442 3.71.586 1.433.88 2.996.88 4.688v5.352zM54.29 12.32c0-1.002-.163-1.907-.488-2.715a5.73 5.73 0 00-1.348-2.09 5.73 5.73 0 00-2.09-1.347c-.807-.326-1.699-.488-2.675-.488h-6.876c-.99 0-1.894.162-2.714.488a5.959 5.959 0 00-2.09 1.348 5.948 5.948 0 00-1.367 2.09c-.313.807-.47 1.712-.47 2.714v5.352c0 1.002.157 1.914.47 2.734a6.193 6.193 0 001.367 2.09 6.349 6.349 0 002.09 1.348c.82.312 1.725.468 2.715.468h6.835c.99 0 1.888-.156 2.696-.468a6.302 6.302 0 002.11-1.348 5.957 5.957 0 001.347-2.09c.325-.82.488-1.732.488-2.734V12.32zm37.733 14.121c0 .365-.065.704-.195 1.016a2.448 2.448 0 01-1.348 1.348c-.312.13-.65.195-1.015.195h-18.32c-.47 0-.977-.052-1.524-.156a8.532 8.532 0 01-1.602-.528 7.786 7.786 0 01-1.503-.898 6.686 6.686 0 01-1.29-1.348 7.05 7.05 0 01-.878-1.836c-.222-.703-.332-1.49-.332-2.363V8.121c0-.469.052-.97.156-1.504.117-.547.293-1.08.527-1.601a7.08 7.08 0 01.918-1.524 6.26 6.26 0 011.348-1.27 6.698 6.698 0 011.836-.898c.69-.221 1.471-.332 2.343-.332H91.79V6.07H71.144c-.663 0-1.171.176-1.523.528-.352.351-.527.872-.527 1.562v13.711c0 .651.175 1.159.527 1.524.365.351.873.527 1.523.527h15.801v-6.367H73.43v-5.117h16.035c.364 0 .703.071 1.016.214.312.13.579.313.8.547.235.235.417.508.547.82.13.3.195.626.195.977v11.445zm34.688-8.769c0 1.706-.293 3.275-.879 4.707-.586 1.432-1.4 2.67-2.441 3.71-1.042 1.043-2.279 1.856-3.711 2.442-1.42.573-2.969.86-4.649.86h-6.875c-1.679 0-3.235-.287-4.668-.86-1.432-.586-2.669-1.4-3.71-2.441-1.042-1.042-1.863-2.279-2.462-3.711-.585-1.432-.879-3.001-.879-4.707V12.32c0-1.692.294-3.255.88-4.687.598-1.446 1.419-2.682 2.46-3.711 1.042-1.042 2.279-1.856 3.711-2.442 1.433-.585 2.989-.878 4.668-.878h6.875c1.68 0 3.229.293 4.649.878 1.432.586 2.669 1.4 3.711 2.442 1.041 1.029 1.855 2.265 2.441 3.71.586 1.433.879 2.996.879 4.688v5.352zm-5.078-5.352c0-1.002-.163-1.907-.488-2.715a5.737 5.737 0 00-1.348-2.09 5.735 5.735 0 00-2.09-1.347c-.807-.326-1.699-.488-2.676-.488h-6.875c-.989 0-1.894.162-2.715.488a5.958 5.958 0 00-2.089 1.348 5.955 5.955 0 00-1.368 2.09c-.312.807-.468 1.712-.468 2.714v5.352c0 1.002.156 1.914.468 2.734a6.201 6.201 0 001.368 2.09 6.348 6.348 0 002.089 1.348c.821.312 1.726.468 2.715.468h6.836c.99 0 1.888-.156 2.696-.468a6.305 6.305 0 002.109-1.348 5.965 5.965 0 001.348-2.09c.325-.82.488-1.732.488-2.734V12.32zm15.215.118h17.832V.992h5.078V29h-5.078V17.555h-17.832V29h-5.078V.992h5.078v11.445zm58.261 5.234c0 1.706-.293 3.275-.879 4.707-.585 1.432-1.399 2.67-2.441 3.71-1.042 1.043-2.279 1.856-3.711 2.442-1.419.573-2.969.86-4.648.86h-6.875c-1.68 0-3.236-.287-4.668-.86-1.433-.586-2.67-1.4-3.711-2.441-1.042-1.042-1.862-2.279-2.461-3.711-.586-1.432-.879-3.001-.879-4.707V12.32c0-1.692.293-3.255.879-4.687.599-1.446 1.419-2.682 2.461-3.711 1.041-1.042 2.278-1.856 3.711-2.442 1.432-.585 2.988-.878 4.668-.878h6.875c1.679 0 3.229.293 4.648.878 1.432.586 2.669 1.4 3.711 2.442 1.042 1.029 1.856 2.265 2.441 3.71.586 1.433.879 2.996.879 4.688v5.352zm-5.078-5.352c0-1.002-.163-1.907-.488-2.715a5.737 5.737 0 00-1.348-2.09 5.727 5.727 0 00-2.09-1.347c-.807-.326-1.699-.488-2.675-.488h-6.875c-.99 0-1.895.162-2.715.488a5.962 5.962 0 00-2.09 1.348 5.939 5.939 0 00-1.367 2.09c-.313.807-.469 1.712-.469 2.714v5.352c0 1.002.156 1.914.469 2.734a6.184 6.184 0 001.367 2.09 6.352 6.352 0 002.09 1.348c.82.312 1.725.468 2.715.468h6.836c.989 0 1.888-.156 2.695-.468a6.305 6.305 0 002.109-1.348 5.965 5.965 0 001.348-2.09c.325-.82.488-1.732.488-2.734V12.32zM225.852 29h-23.164c-.365 0-.704-.065-1.016-.195a2.675 2.675 0 01-.82-.528 2.673 2.673 0 01-.528-.82 2.618 2.618 0 01-.195-1.016V.992h5.078v22.93h20.645V29zm31.679-11.719c0 1.706-.299 3.275-.898 4.707-.586 1.433-1.4 2.67-2.442 3.711-1.041 1.029-2.278 1.836-3.711 2.422-1.432.586-2.988.879-4.668.879h-13.71c-.365 0-.704-.065-1.016-.195a2.675 2.675 0 01-.82-.528 2.673 2.673 0 01-.528-.82 2.618 2.618 0 01-.195-1.016V3.551c0-.352.065-.684.195-.996.13-.313.306-.586.528-.82.234-.235.507-.417.82-.548.312-.13.651-.195 1.016-.195h13.71c1.68 0 3.236.293 4.668.88 1.433.585 2.67 1.399 3.711 2.44 1.042 1.03 1.856 2.266 2.442 3.711.599 1.433.898 2.995.898 4.688v4.57zm-5.078-4.57c0-.99-.163-1.895-.488-2.715a5.737 5.737 0 00-1.348-2.09 5.924 5.924 0 00-2.109-1.347c-.807-.326-1.706-.489-2.696-.489h-11.191v17.852h11.191c.99 0 1.889-.156 2.696-.469a6.303 6.303 0 002.109-1.348 5.966 5.966 0 001.348-2.09c.325-.82.488-1.731.488-2.734v-4.57zm33.086 4.844h-16.035v-5.117h16.035v5.117zM287.824 29h-18.32c-.703 0-1.471-.124-2.305-.371a6.973 6.973 0 01-2.324-1.211c-.703-.573-1.296-1.309-1.777-2.207-.469-.912-.703-2.025-.703-3.34V3.551c0-.352.065-.684.195-.996a2.69 2.69 0 01.527-.82 2.52 2.52 0 01.821-.548c.312-.13.651-.195 1.015-.195h22.871V6.07h-20.351v15.801c0 .664.175 1.172.527 1.524.352.351.866.527 1.543.527h18.281V29zm32.91-18.594c0 1.16-.143 2.194-.429 3.106a8.726 8.726 0 01-1.172 2.422 8.1 8.1 0 01-1.68 1.777c-.638.495-1.308.905-2.012 1.23a9.74 9.74 0 01-2.109.684 9.998 9.998 0 01-1.992.215L321.945 29h-7.851l-10.586-9.16h-3.653v-5.078h11.485a5.967 5.967 0 001.738-.39c.534-.222.99-.515 1.367-.88.391-.364.69-.8.899-1.308.208-.521.312-1.114.312-1.778V7.203c0-.286-.039-.501-.117-.644a.644.644 0 00-.273-.332.695.695 0 00-.352-.137 3.013 3.013 0 00-.332-.02h-16.758V29h-5.078V3.55c0-.35.065-.683.195-.995a2.68 2.68 0 01.528-.82c.234-.235.508-.417.82-.548a2.62 2.62 0 011.016-.195h19.277c1.133 0 2.09.209 2.871.625.781.404 1.413.918 1.895 1.543a5.671 5.671 0 011.054 1.992c.222.716.332 1.387.332 2.012v3.242z" fill="#fff"/></svg>